<svg width="480" height="359" viewBox="0 0 480 359" fill="none" xmlns="http://www.w3.org/2000/svg">
<g clip-path="url(#clip0_21_663)">
<path d="M57.2667 255.739C89.1363 332.185 133.157 291.381 189.123 266.443C221.541 251.997 244.9 251.139 277.995 263.372C315.661 277.293 358.904 289.022 392.547 256.407C468.332 182.936 395.639 29.3924 305.177 47.5173C274.543 53.6556 251.142 82.5956 221.199 88.3488C192.085 93.942 167.865 62.9953 143.29 49.807C99.8453 26.4949 66.4552 59.6849 50.5924 107.764C33.9658 158.157 38.3744 207.702 57.2667 255.737V255.739Z" fill="#E8E8F7"/>
<path d="M480 48.2295V141.325C480 146.63 475.656 150.971 470.347 150.971H368.524C363.215 150.971 358.871 146.63 358.871 141.325V48.2295C358.871 42.924 363.215 38.5859 368.524 38.5859H470.347C475.656 38.5859 480 42.9263 480 48.2295Z" fill="#A77FFB"/>
<path d="M480 48.2295V58.9263H358.869V48.2295C358.869 42.924 363.212 38.5859 368.522 38.5859H470.345C475.654 38.5859 479.998 42.9263 479.998 48.2295H480Z" fill="#292F52"/>
<path d="M465.523 48.7051C465.523 50.5702 467.034 52.0804 468.901 52.0804C470.767 52.0804 472.279 50.5679 472.279 48.7051C472.279 46.8422 470.765 45.3297 468.901 45.3297C467.037 45.3297 465.523 46.8422 465.523 48.7051Z" fill="#A77FFB"/>
<path d="M452.855 48.7051C452.855 50.5702 454.366 52.0804 456.233 52.0804C458.099 52.0804 459.61 50.5679 459.61 48.7051C459.61 46.8422 458.099 45.3297 456.233 45.3297C454.366 45.3297 452.855 46.8422 452.855 48.7051Z" fill="#A77FFB"/>
<path d="M411.314 48.7051C411.314 50.5609 409.225 52.0804 406.671 52.0804H371.078C368.522 52.0804 366.435 50.5609 366.435 48.7051C366.435 46.8492 368.522 45.3297 371.078 45.3297H406.671C409.225 45.3297 411.314 46.8492 411.314 48.7051Z" fill="#CFD2D3"/>
<path d="M440.107 74.8821H372.868C371.535 74.8821 370.453 73.8034 370.453 72.4695C370.453 71.1356 371.535 70.0592 372.868 70.0592H440.107C441.44 70.0592 442.519 71.1379 442.519 72.4695C442.519 73.8011 441.44 74.8821 440.107 74.8821Z" fill="#E5E7E8"/>
<path d="M426.274 86.0777H385.736C384.403 86.0777 383.324 84.999 383.324 83.6674C383.324 82.3358 384.403 81.2547 385.736 81.2547H426.274C427.606 81.2547 428.686 82.3335 428.686 83.6674C428.686 85.0013 427.606 86.0777 426.274 86.0777Z" fill="#E5E7E8"/>
<path d="M450.401 97.2732H385.733C384.401 97.2732 383.321 96.1945 383.321 94.8629C383.321 93.5313 384.401 92.4503 385.733 92.4503H450.401C451.733 92.4503 452.813 93.529 452.813 94.8629C452.813 96.1968 451.733 97.2732 450.401 97.2732Z" fill="#E5E7E8"/>
<path d="M440.107 108.469H403.43C402.098 108.469 401.018 107.39 401.018 106.058C401.018 104.727 402.098 103.648 403.43 103.648H440.107C441.44 103.648 442.519 104.727 442.519 106.058C442.519 107.39 441.44 108.469 440.107 108.469Z" fill="#E5E7E8"/>
<path d="M461.663 119.664H385.736C384.403 119.664 383.324 118.586 383.324 117.252C383.324 115.918 384.403 114.841 385.736 114.841H461.663C462.995 114.841 464.075 115.92 464.075 117.252C464.075 118.583 462.995 119.664 461.663 119.664Z" fill="#E5E7E8"/>
<path d="M406.005 130.862H372.868C371.535 130.862 370.453 129.783 370.453 128.452C370.453 127.12 371.535 126.039 372.868 126.039H406.005C407.335 126.039 408.417 127.118 408.417 128.452C408.417 129.786 407.335 130.862 406.005 130.862Z" fill="#E5E7E8"/>
<path d="M440.107 142.055H385.736C384.403 142.055 383.324 140.977 383.324 139.645C383.324 138.314 384.403 137.235 385.736 137.235H440.107C441.44 137.235 442.519 138.314 442.519 139.645C442.519 140.977 441.44 142.055 440.107 142.055Z" fill="#E5E7E8"/>
<path d="M73.6263 144.51C73.6263 143.222 73.5567 141.946 73.4058 140.694L80.5792 136.553C78.7917 127.482 74.0094 119.479 67.3119 113.633L60.15 117.762C58.1187 116.243 55.9017 114.955 53.5454 113.946V105.676C49.3899 104.249 44.921 103.483 40.2896 103.483C35.6582 103.483 31.2009 104.249 27.0455 105.664V113.946C24.6891 114.955 22.4721 116.243 20.4408 117.762L13.2674 113.621C6.56984 119.479 1.78755 127.482 0 136.553L7.18504 140.705C7.03414 141.958 6.9645 143.222 6.9645 144.51C6.9645 145.797 7.03414 147.073 7.18504 148.314L0.0116075 152.455C1.78755 161.537 6.56984 169.541 13.279 175.387L20.4408 171.258C22.4721 172.766 24.6891 174.053 27.0455 175.074V183.344C31.2009 184.759 35.6582 185.525 40.2896 185.525C44.921 185.525 49.3899 184.759 53.5454 183.332V175.074C55.9017 174.053 58.1187 172.766 60.15 171.258L67.3119 175.387C74.0094 169.529 78.7917 161.537 80.5676 152.455L73.4058 148.314C73.5567 147.073 73.6263 145.797 73.6263 144.51ZM59.5813 148.662C58.7107 152.768 56.5517 156.399 53.5454 159.113C51.4908 160.981 49.0417 162.419 46.3371 163.289C44.4335 163.904 42.4022 164.228 40.2896 164.228C38.177 164.228 36.1457 163.904 34.2421 163.289C31.5492 162.419 29.1 160.992 27.0455 159.125C24.0391 156.411 21.8801 152.768 20.9863 148.662C20.7078 147.328 20.5569 145.937 20.5569 144.51C20.5569 143.083 20.7078 141.691 20.998 140.346C21.8801 136.24 24.0391 132.609 27.0455 129.895C29.1 128.027 31.5492 126.601 34.2537 125.731C36.1573 125.116 38.1887 124.791 40.2896 124.791C42.3906 124.791 44.4335 125.116 46.3371 125.731C49.0417 126.601 51.4908 128.039 53.5454 129.906C56.5401 132.621 58.6991 136.251 59.5813 140.346C59.8714 141.691 60.0223 143.083 60.0223 144.51C60.0223 145.937 59.8714 147.328 59.5813 148.662Z" fill="#3E4463"/>
<path d="M139.367 17.2666H88.2982C83.1697 17.2666 79.0122 21.4211 79.0122 26.5459V45.6266C79.0122 50.7515 83.1697 54.906 88.2982 54.906H139.367C144.495 54.906 148.653 50.7515 148.653 45.6266V26.5459C148.653 21.4211 144.495 17.2666 139.367 17.2666Z" fill="#A77FFB"/>
<path d="M127.413 48.4104C126.837 48.4104 126.259 48.197 125.809 47.7678C124.883 46.8817 124.85 45.4132 125.737 44.4876L133.779 36.0874L125.737 27.6873C124.85 26.7617 124.883 25.2932 125.809 24.407C126.735 23.5209 128.205 23.5557 129.092 24.479L138.668 34.4821C139.527 35.3776 139.527 36.7927 138.668 37.6881L129.092 47.6913C128.634 48.1668 128.026 48.4081 127.413 48.4081V48.4104Z" fill="#E5E7E8"/>
<path d="M100.256 48.4104C99.6457 48.4104 99.0351 48.1714 98.5778 47.6935L89.0016 37.6904C88.1427 36.7949 88.1427 35.3798 89.0016 34.4844L98.5778 24.4812C99.4646 23.5556 100.934 23.5208 101.86 24.4093C102.787 25.2955 102.819 26.7639 101.932 27.6896L93.8907 36.0897L101.932 44.4898C102.819 45.4155 102.787 46.8839 101.86 47.7701C101.41 48.1993 100.832 48.4127 100.256 48.4127V48.4104Z" fill="#E5E7E8"/>
<path d="M110.06 48.4104C109.788 48.4104 109.512 48.3617 109.243 48.262C108.043 47.8096 107.437 46.471 107.889 45.274L115.434 25.2654C115.885 24.066 117.226 23.4605 118.424 23.9129C119.625 24.3653 120.23 25.7015 119.778 26.9009L112.233 46.9095C111.882 47.8398 110.998 48.4128 110.06 48.4128V48.4104Z" fill="#E5E7E8"/>
<path d="M380.661 289.382C380.661 310.655 320.002 359 245.178 359C170.354 359 109.695 310.655 109.695 289.384C109.695 268.113 170.354 250.865 245.178 250.865C320.002 250.865 380.661 268.111 380.661 289.382Z" fill="#D8D8E6"/>
<path d="M317.632 230.822C326.937 231.508 372.751 246.374 373.912 259.133C375.073 271.892 277.57 328.148 234.84 327.568C192.111 326.989 110.422 274.212 113.324 261.646C116.226 249.081 147.123 232.297 166.138 230.819C189.933 228.973 317.632 230.819 317.632 230.819V230.822Z" fill="#292F52"/>
<path d="M232.493 299.902C238.973 301.473 250.292 310.172 254.355 312.492C258.418 314.812 276.119 325.541 277.57 330.181C279.021 334.82 278.731 348.449 268.864 352.509C258.998 356.569 225.917 345.26 221.564 341.2C216.631 309.012 232.493 299.902 232.493 299.902Z" fill="#292F52"/>
<path d="M113.247 260.293C109.918 265.223 108.969 284.941 113.322 291.901C117.674 298.86 164.685 330.178 218.95 341.198C217.209 333.078 236.233 309.181 240.103 304.95C200.445 285.447 143.501 252.464 113.247 260.293Z" fill="#3E4463"/>
<path d="M236.556 309.205C211.697 306.402 180.014 321.191 177.718 330.471C175.422 339.75 177.453 350.769 183.257 356.279C189.061 361.788 227.268 359.471 246.615 344.39C250.58 328.731 236.556 309.205 236.556 309.205Z" fill="#292F52"/>
<path d="M236.194 313.68C225.819 313.264 205.604 318.579 199.8 323.799C203.282 332.788 205.894 345.837 202.992 350.187C214.599 352.217 237.169 346.417 243.586 341.198C244.198 332.788 236.194 313.68 236.194 313.68Z" fill="#292F52"/>
<path d="M373.912 259.133C378.367 266.673 380.877 286.391 373.912 293.351C366.948 300.31 292.66 337.815 246.617 344.387C239.653 337.815 234.622 313.069 236.558 309.202C267.511 285.619 337.544 254.686 373.915 259.133H373.912Z" fill="#3E4463"/>
<path d="M313.562 200.165C314.798 215.787 306.888 217.564 301.375 221.334C295.861 225.103 297.602 236.413 299.633 255.551C287.155 265.411 219.542 280.2 182.108 260.191C182.978 254.681 183.559 239.602 182.688 232.933C181.817 226.263 178.625 222.494 167.308 215.824C155.991 209.155 167.888 137.529 172.822 131.44C177.755 125.35 208.224 106.212 224.185 103.892C224.185 103.892 248.561 102.442 258.427 103.892C268.293 105.342 303.986 122.16 313.562 133.18C323.139 144.199 312.692 189.146 313.562 200.165Z" fill="#041755"/>
<path d="M279.504 261.648C281.052 261.263 313.553 255.848 327.87 245.409C347.937 230.775 321.662 142.96 314.937 135.251C314.937 135.251 309.79 126.803 295.132 119.811C283.963 126.51 286.626 157.343 287.446 163.628C289.951 182.771 297.872 209.166 299.624 215.249C295.369 219.888 274.861 229.168 274.861 229.168L279.504 261.646V261.648Z" fill="#021450"/>
<path d="M205.216 263.58C205.216 263.58 191.294 264.225 178.131 259.713C130.789 243.484 153.959 152.898 172.822 131.44C172.822 131.44 179.169 124.61 187.51 120.36C194.363 123.2 199.881 141.253 195.844 161.892C192.062 181.226 186.644 218.726 186.644 222.593C190.899 225.686 203.28 231.873 203.28 231.873L205.214 263.578L205.216 263.58Z" fill="#021450"/>
<path d="M306.182 273.632H176.216L170.586 191.988C204.278 186.687 283.659 186.687 311.812 191.988L306.182 273.632Z" fill="#CFD2D3"/>
<path d="M249.905 230.822C249.905 235.626 246.007 239.521 241.199 239.521C236.391 239.521 232.493 235.626 232.493 230.822C232.493 226.017 236.391 222.122 241.199 222.122C246.007 222.122 249.905 226.017 249.905 230.822Z" fill="#E6E8E8"/>
<path d="M306.182 273.632V280.399H176.125L176.216 273.632H306.182Z" fill="#A2A9AD"/>
<path d="M261.426 87.0752C260.925 92.2972 260.458 105.249 263.748 109.889C251.172 120.908 226.991 118.78 219.059 111.241C220.8 105.054 220.8 92.2949 219.059 88.2351C217.318 84.1754 239.565 81.0831 239.565 81.0831L261.426 87.0752Z" fill="#D77359"/>
<path d="M200.995 55.1844C185.502 18.4427 208.612 17.2851 208.612 17.2851C213.643 0.401319 244.965 -2.2085 255.428 1.43365C272.646 7.4258 284.525 25.7711 276.669 53.927C276.669 53.927 266.986 96.1342 243.627 96.0623C220.194 95.9904 200.995 55.182 200.995 55.182V55.1844Z" fill="#292F52"/>
<path d="M281.349 63.7794C281.349 72.7247 273.356 75.2811 268.388 75.2811C263.42 75.2811 264.86 67.2939 264.86 62.2761C264.86 57.2583 265.549 52.2753 270.517 52.2753C275.485 52.2753 281.349 54.5951 281.349 63.777V63.7794Z" fill="#D77359"/>
<path d="M195.844 65.4311C195.844 74.3764 203.837 76.9329 208.805 76.9329C213.773 76.9329 212.336 68.9457 212.336 63.9278C212.336 58.91 211.646 53.927 206.676 53.927C201.706 53.927 195.844 56.2468 195.844 65.4311Z" fill="#D77359"/>
<path d="M249.454 103.249C240.34 107.374 226.43 106.856 220.229 103.249C220.347 100.41 220.415 96.8348 220.229 94.7771C227.57 97.1271 249.454 103.249 249.454 103.249Z" fill="#AD4C45"/>
<path d="M204.55 56.5299C204.55 84.368 218.479 103.894 243.627 103.894C268.776 103.894 274.58 71.0289 274.58 56.5299C274.58 42.0309 251.172 25.4069 238.599 25.4069C208.032 25.4069 204.55 56.5299 204.55 56.5299Z" fill="#D77359"/>
<path d="M204.55 63.7794C212.094 58.8497 215.769 47.8305 216.35 43.5782C233.373 31.0139 246.142 47.2505 262.972 42.4183C264.328 48.6053 270.517 57.7269 274.58 60.1256C275.33 55.2655 277.988 47.2366 275.861 41.8221C273.733 36.4076 271.165 17.2851 237.663 16.3201C204.162 15.355 199.134 36.8112 199.907 43.3856C200.68 49.9578 204.55 63.7817 204.55 63.7817V63.7794Z" fill="#292F52"/>
<path d="M222.032 58.8066C222.032 58.8066 222.085 58.6173 222.247 58.3408C222.405 58.0685 222.672 57.709 223.077 57.3793C223.276 57.2092 223.505 57.0305 223.775 56.8901C224.045 56.7454 224.323 56.571 224.655 56.4625C225.297 56.2137 226.063 56.0605 226.866 56.0095C227.67 55.9691 228.527 56.0584 229.292 56.2711C230.058 56.5072 230.726 56.8433 231.166 57.2368C231.392 57.4283 231.557 57.6367 231.686 57.8154C231.821 57.9877 231.87 58.1919 231.923 58.3344C232.011 58.6365 231.999 58.8194 231.999 58.8194L231.994 58.9087C231.994 58.9577 231.935 58.9959 231.867 58.9938C231.844 58.9938 231.823 58.9874 231.806 58.9789C231.806 58.9789 231.674 58.9172 231.442 58.8088C231.228 58.6833 230.867 58.5726 230.445 58.4301C230.014 58.3068 229.489 58.1983 228.908 58.1408C228.327 58.0919 227.699 58.0834 227.075 58.1281C225.819 58.1791 224.57 58.3982 223.663 58.6131C222.748 58.8194 222.159 58.9938 222.159 58.9938C222.1 59.0108 222.032 58.9917 222.009 58.9491C222 58.9343 221.997 58.9172 222.003 58.9024L222.029 58.8045L222.032 58.8066Z" fill="#3E4463"/>
<path d="M245.15 73.9983C245.15 73.9983 245.204 74.163 245.297 74.4483C245.38 74.7244 245.552 75.1211 245.731 75.6013C246.1 76.564 246.62 77.8538 246.901 79.2829C247.021 79.9997 247.112 80.7606 246.901 81.5377C246.803 81.9228 246.576 82.3079 246.267 82.5631C245.958 82.8229 245.605 82.9459 245.303 82.9923C244.688 83.092 244.24 82.9528 243.925 82.9018C243.618 82.8137 243.449 82.7533 243.449 82.7533C243.353 82.7185 243.302 82.6142 243.337 82.5167C243.363 82.4448 243.428 82.3984 243.502 82.3938H243.516C243.516 82.3938 243.69 82.3845 243.983 82.3868C244.268 82.3729 244.702 82.3543 245.104 82.2035C245.515 82.0435 245.793 81.786 245.872 81.2826C245.96 80.7838 245.889 80.1366 245.763 79.4963C245.508 78.2018 245.115 76.8679 244.934 75.824C244.832 75.3043 244.802 74.8566 244.781 74.5365C244.763 74.2094 244.788 74.0447 244.788 74.0447V74.0284C244.807 73.9263 244.902 73.8567 245.004 73.873C245.074 73.8846 245.132 73.9356 245.15 74.0006V73.9983Z" fill="#AD4C45"/>
<path d="M233.538 88.3697C233.538 88.3697 233.831 88.4903 234.33 88.7269C234.578 88.8638 234.882 88.9636 235.207 89.0749C235.53 89.1955 235.894 89.3208 236.329 89.4322C236.746 89.5621 237.208 89.6642 237.701 89.7639C238.183 89.8869 238.72 89.924 239.254 90.0284C239.799 90.0887 240.363 90.142 240.937 90.1838C241.512 90.2209 242.095 90.2395 242.683 90.2302C243.27 90.258 243.857 90.2024 244.435 90.1838C245.006 90.1188 245.584 90.1188 246.125 90.0214C246.671 89.9472 247.2 89.8822 247.692 89.7755C248.196 89.6966 248.64 89.5551 249.078 89.4646C249.489 89.3278 249.886 89.228 250.218 89.1051C250.538 88.9636 250.845 88.8684 251.075 88.7594C251.52 88.5274 251.799 88.3952 251.799 88.3952L251.852 88.3697C252.036 88.2838 252.256 88.3627 252.342 88.546C252.405 88.6805 252.379 88.8337 252.289 88.9404C252.289 88.9404 252.075 89.1863 251.662 89.6154C251.228 90.0075 250.557 90.5155 249.673 90.9725C249.225 91.1651 248.744 91.4388 248.203 91.5966C247.671 91.7868 247.103 91.977 246.504 92.0953C245.905 92.2485 245.28 92.3297 244.64 92.4271C243.999 92.4688 243.346 92.5477 242.692 92.5361C242.037 92.557 241.385 92.4944 240.739 92.4387C240.096 92.3876 239.47 92.2508 238.866 92.1278C238.267 91.9701 237.687 91.8402 237.16 91.6128C236.895 91.5107 236.637 91.411 236.389 91.3159C236.15 91.1929 235.92 91.0723 235.697 90.9586C235.256 90.7475 234.861 90.4877 234.525 90.2348C234.177 90.0005 233.903 89.7825 233.722 89.583C233.329 89.1979 233.113 88.9636 233.113 88.9636C232.974 88.8104 232.983 88.5738 233.137 88.4323C233.246 88.3302 233.404 88.3094 233.534 88.3627L233.538 88.3697Z" fill="#AD4C45"/>
<path d="M222 65.1429C223.754 64.2804 228.409 63.073 233 65.1429C230.928 65.7897 225.826 66.6952 222 65.1429Z" fill="black" stroke="black" stroke-width="0.2" stroke-linejoin="round"/>
<path d="M248 65.1429C249.754 64.2804 254.409 63.073 259 65.1429C256.928 65.7897 251.826 66.6952 248 65.1429Z" fill="black" stroke="black" stroke-width="0.2" stroke-linejoin="round"/>
<path d="M248.032 58.8066C248.032 58.8066 248.085 58.6173 248.247 58.3408C248.405 58.0685 248.672 57.709 249.077 57.3793C249.276 57.2092 249.505 57.0305 249.775 56.8901C250.045 56.7454 250.323 56.571 250.655 56.4625C251.297 56.2137 252.063 56.0605 252.866 56.0095C253.67 55.9691 254.527 56.0584 255.292 56.2711C256.058 56.5072 256.726 56.8433 257.166 57.2368C257.392 57.4283 257.557 57.6367 257.686 57.8154C257.821 57.9877 257.87 58.1919 257.923 58.3344C258.011 58.6365 257.999 58.8194 257.999 58.8194L257.994 58.9087C257.994 58.9577 257.935 58.9959 257.867 58.9938C257.844 58.9938 257.823 58.9874 257.806 58.9789C257.806 58.9789 257.674 58.9172 257.442 58.8088C257.228 58.6833 256.867 58.5726 256.445 58.4301C256.014 58.3068 255.489 58.1983 254.908 58.1408C254.327 58.0919 253.699 58.0834 253.075 58.1281C251.819 58.1791 250.57 58.3982 249.663 58.6131C248.748 58.8194 248.159 58.9938 248.159 58.9938C248.1 59.0108 248.032 58.9917 248.009 58.9491C248 58.9343 247.997 58.9172 248.003 58.9024L248.029 58.8045L248.032 58.8066Z" fill="#3E4463"/>
</g>
<defs>
<clipPath id="clip0_21_663">
<rect width="480" height="359" fill="white"/>
</clipPath>
</defs>
</svg>
