<svg width="61" height="35" viewBox="0 0 61 35" fill="none" xmlns="http://www.w3.org/2000/svg">
<g id="AWS logo" clip-path="url(#clip0_7_3367)">
<path id="Vector" d="M17.4184 12.7113C17.4184 13.4316 17.4964 14.0156 17.6329 14.4438C17.7888 14.8721 17.9838 15.3393 18.2567 15.8454C18.3542 16.0011 18.3932 16.1568 18.3932 16.2931C18.3932 16.4878 18.2762 16.6824 18.0228 16.8771L16.7945 17.6947C16.6191 17.8115 16.4436 17.8699 16.2876 17.8699C16.0927 17.8699 15.8977 17.7725 15.7028 17.5973C15.4298 17.3053 15.1959 16.9939 15.0009 16.6824C14.806 16.3515 14.611 15.9816 14.3966 15.5339C12.8759 17.3248 10.9653 18.2202 8.66479 18.2202C7.02714 18.2202 5.72092 17.7531 4.76563 16.8187C3.81033 15.8843 3.32294 14.6385 3.32294 13.0812C3.32294 11.4266 3.90781 10.0834 5.09706 9.07119C6.2863 8.05896 7.86546 7.55284 9.87353 7.55284C10.5364 7.55284 11.2187 7.61124 11.9401 7.70857C12.6614 7.8059 13.4023 7.96163 14.1821 8.13682V6.7158C14.1821 5.23637 13.8702 4.20467 13.2658 3.60122C12.6419 2.99778 11.5892 2.70578 10.088 2.70578C9.40563 2.70578 8.70378 2.78365 7.98243 2.95884C7.26109 3.13404 6.55924 3.34817 5.87689 3.62069C5.56495 3.75695 5.331 3.83482 5.19453 3.87375C5.05806 3.91268 4.96058 3.93215 4.8826 3.93215C4.60966 3.93215 4.47319 3.73749 4.47319 3.3287V2.37486C4.47319 2.0634 4.51218 1.82981 4.60966 1.69355C4.70714 1.55729 4.8826 1.42102 5.15554 1.28476C5.8379 0.934372 6.65672 0.64238 7.61201 0.408788C8.56731 0.155729 9.58109 0.0389321 10.6534 0.0389321C12.9734 0.0389321 14.6695 0.564516 15.7613 1.61568C16.8335 2.66685 17.3794 4.26307 17.3794 6.40434V12.7113H17.4184ZM9.50311 15.6702C10.1465 15.6702 10.8093 15.5534 11.5112 15.3198C12.213 15.0862 12.8369 14.658 13.3633 14.074C13.6752 13.7041 13.9092 13.2953 14.0261 12.8281C14.1431 12.361 14.2211 11.7964 14.2211 11.1346V10.317C13.6557 10.1808 13.0513 10.064 12.4275 9.9861C11.8036 9.90823 11.1992 9.8693 10.5949 9.8693C9.28865 9.8693 8.33336 10.1224 7.69 10.6479C7.04664 11.1735 6.7347 11.9132 6.7347 12.8865C6.7347 13.8014 6.96865 14.4828 7.45605 14.9499C7.92395 15.4366 8.6063 15.6702 9.50311 15.6702ZM25.1582 17.7725C24.8073 17.7725 24.5734 17.7141 24.4174 17.5779C24.2614 17.4611 24.125 17.1885 24.008 16.8187L19.4265 1.77141C19.3095 1.38209 19.251 1.12903 19.251 0.99277C19.251 0.681313 19.407 0.506118 19.7189 0.506118H21.6295C21.9999 0.506118 22.2534 0.564516 22.3898 0.700779C22.5458 0.817575 22.6628 1.0901 22.7797 1.45996L26.055 14.3465L29.0964 1.45996C29.1939 1.07063 29.3108 0.817575 29.4668 0.700779C29.6228 0.583982 29.8957 0.506118 30.2466 0.506118H31.8063C32.1767 0.506118 32.4302 0.564516 32.5861 0.700779C32.7421 0.817575 32.8786 1.0901 32.9566 1.45996L36.0369 14.5022L39.4097 1.45996C39.5266 1.07063 39.6631 0.817575 39.7996 0.700779C39.9556 0.583982 40.209 0.506118 40.5599 0.506118H42.373C42.685 0.506118 42.8604 0.661847 42.8604 0.99277C42.8604 1.0901 42.8409 1.18743 42.8214 1.30423C42.8019 1.42102 42.7629 1.57675 42.685 1.79088L37.9865 16.8382C37.8695 17.2275 37.733 17.4805 37.5771 17.5973C37.4211 17.7141 37.1676 17.792 36.8362 17.792H35.1596C34.7892 17.792 34.5357 17.7336 34.3797 17.5973C34.2238 17.4611 34.0873 17.208 34.0093 16.8187L30.9875 4.26307L27.9851 16.7992C27.8876 17.1885 27.7707 17.4416 27.6147 17.5779C27.4587 17.7141 27.1858 17.7725 26.8349 17.7725H25.1582ZM50.2103 18.2981C49.1966 18.2981 48.1828 18.1813 47.208 17.9477C46.2332 17.7141 45.4729 17.4611 44.966 17.1691C44.654 16.9939 44.4396 16.7992 44.3616 16.624C44.2836 16.4488 44.2446 16.2542 44.2446 16.079V15.0862C44.2446 14.6774 44.4006 14.4828 44.693 14.4828C44.81 14.4828 44.927 14.5022 45.044 14.5412C45.1609 14.5801 45.3364 14.658 45.5313 14.7358C46.1942 15.0278 46.9156 15.2614 47.6759 15.4171C48.4557 15.5729 49.2161 15.6507 49.9959 15.6507C51.2241 15.6507 52.1794 15.4366 52.8423 15.0083C53.5051 14.5801 53.8561 13.9572 53.8561 13.1591C53.8561 12.614 53.6806 12.1663 53.3297 11.7964C52.9787 11.4266 52.3159 11.0957 51.3606 10.7842L48.5337 9.90823C47.1105 9.46051 46.0577 8.79867 45.4144 7.92269C44.771 7.06619 44.4396 6.11235 44.4396 5.10011C44.4396 4.28254 44.615 3.56229 44.966 2.93938C45.3169 2.31646 45.7848 1.77141 46.3697 1.34316C46.9545 0.89544 47.6174 0.564516 48.3972 0.330923C49.1771 0.0973304 49.9959 0 50.8537 0C51.2826 0 51.731 0.0194661 52.1599 0.0778643C52.6083 0.136263 53.0177 0.214127 53.4272 0.291991C53.8171 0.389321 54.1875 0.486652 54.5384 0.603448C54.8893 0.720245 55.1623 0.837041 55.3572 0.953838C55.6302 1.10957 55.8251 1.26529 55.9421 1.44049C56.0591 1.59622 56.1176 1.81034 56.1176 2.08287V2.99778C56.1176 3.40656 55.9616 3.62069 55.6692 3.62069C55.5132 3.62069 55.2598 3.54283 54.9283 3.3871C53.8171 2.88098 52.5693 2.62792 51.1851 2.62792C50.0739 2.62792 49.1966 2.80311 48.5922 3.17297C47.9878 3.54283 47.6759 4.10734 47.6759 4.90545C47.6759 5.4505 47.8708 5.91769 48.2608 6.28754C48.6507 6.6574 49.372 7.02725 50.4053 7.35818L53.1737 8.23415C54.5774 8.68187 55.5912 9.30478 56.1956 10.1029C56.7999 10.901 57.0924 11.8159 57.0924 12.8281C57.0924 13.6652 56.9169 14.4244 56.5855 15.0862C56.2345 15.7481 55.7666 16.332 55.1623 16.7992C54.5579 17.2859 53.8366 17.6363 52.9982 17.8893C52.1209 18.1618 51.2046 18.2981 50.2103 18.2981Z" fill="#A77FFB"/>
<g id="Group">
<path id="Vector_2" fill-rule="evenodd" clip-rule="evenodd" d="M53.8951 27.7586C47.4809 32.4888 38.162 35 30.1492 35C18.9196 35 8.80127 30.8537 1.15892 23.9627C0.554548 23.4177 1.10043 22.6779 1.82178 23.1062C10.088 27.8949 20.2843 30.7953 30.8315 30.7953C37.9475 30.7953 45.7653 29.3159 52.9593 26.2792C54.0315 25.7925 54.9478 26.98 53.8951 27.7586Z" fill="#A77FFB"/>
<path id="Vector_3" fill-rule="evenodd" clip-rule="evenodd" d="M56.566 24.7219C55.7472 23.6707 51.1462 24.2158 49.0601 24.4688C48.4363 24.5467 48.3388 24.0017 48.9042 23.5929C52.5694 21.0233 58.5936 21.7631 59.2954 22.6196C59.9973 23.4955 59.1005 29.5106 55.6692 32.3915C55.1428 32.8393 54.6359 32.6057 54.8699 32.0217C55.6497 30.0945 57.3848 25.7536 56.566 24.7219Z" fill="#A77FFB"/>
</g>
</g>
<defs>
<clipPath id="clip0_7_3367">
<rect width="59.8182" height="35" fill="white" transform="translate(0.366821)"/>
</clipPath>
</defs>
</svg>
