<svg width="84" height="35" viewBox="0 0 84 35" fill="none" xmlns="http://www.w3.org/2000/svg">
<g id="Git logo" clip-path="url(#clip0_7_3386)">
<path id="Vector" d="M50.2583 12.0565C48.445 12.0565 47.0947 12.9468 47.0947 15.0896C47.0947 16.704 47.9846 17.8249 50.1605 17.8249C52.0049 17.8249 53.2577 16.738 53.2577 15.0225C53.2577 13.0787 52.1367 12.0565 50.2583 12.0565ZM46.633 27.1866C46.2037 27.7131 45.7761 28.2729 45.7761 28.9329C45.7761 30.2505 47.4562 30.647 49.7642 30.647C51.6757 30.647 54.2798 30.5129 54.2798 28.7356C54.2798 27.6791 53.027 27.6139 51.4441 27.5148L46.633 27.1866ZM56.3889 12.156C56.9812 12.9141 57.6084 13.9693 57.6084 15.4852C57.6084 19.1435 54.7409 21.2857 50.5888 21.2857C49.5329 21.2857 48.5772 21.1541 47.9846 20.9896L46.8964 22.7358L50.1261 22.9334C55.8288 23.2969 59.1894 23.4622 59.1894 27.844C59.1894 31.6352 55.8615 33.7763 50.1261 33.7763C44.1607 33.7763 41.8864 32.2601 41.8864 29.6566C41.8864 28.1735 42.5457 27.3839 43.6994 26.2944C42.6114 25.8347 42.2492 25.0111 42.2492 24.1205C42.2492 23.3948 42.6114 22.7361 43.2056 22.1092C43.7985 21.484 44.4575 20.8571 45.2486 20.132C43.6339 19.3408 42.4138 17.627 42.4138 15.1874C42.4138 11.3979 44.9191 8.79503 49.9609 8.79503C51.3786 8.79503 52.2359 8.92527 52.994 9.12451H59.4217V11.925L56.3889 12.156ZM65.2203 6.16659C63.3412 6.16659 62.2536 5.07803 62.2536 3.19863C62.2536 1.32183 63.3409 0.299026 65.2203 0.299026C67.1317 0.299026 68.2196 1.32183 68.2196 3.19863C68.2196 5.07803 67.1321 6.16659 65.2203 6.16659ZM60.9677 25.9736V23.3711L62.6492 23.1411C63.1108 23.0747 63.1763 22.9762 63.1763 22.4808V12.7906C63.1763 12.4291 63.0778 12.1971 62.747 12.0993L60.9677 11.4724L61.3299 8.80345H68.1532V22.4808C68.1532 23.0089 68.185 23.0747 68.681 23.1414L70.3618 23.3715V25.9736H60.9677ZM83.3957 24.6959C81.978 25.3876 79.9016 26.0138 78.0223 26.0138C74.1002 26.0138 72.6176 24.4334 72.6176 20.7071V12.0727C72.6176 11.8751 72.6176 11.7432 72.353 11.7432H70.0462V8.80896C72.9475 8.4785 74.1002 7.02837 74.4627 3.43578H77.5943V8.11727C77.5943 8.34729 77.5943 8.44675 77.8583 8.44675H82.5051V11.7426H77.5943V19.6195C77.5943 21.564 78.0563 22.3214 79.8352 22.3214C80.7592 22.3214 81.714 22.0914 82.5048 21.7946L83.3957 24.6959Z" fill="#A77FFB"/>
<path id="Vector_2" d="M34.5599 16.0466L19.4898 0.977442C19.2834 0.770993 19.0383 0.607224 18.7687 0.495491C18.499 0.383757 18.2099 0.326248 17.918 0.326248C17.6261 0.326248 17.337 0.383757 17.0673 0.495491C16.7976 0.607224 16.5526 0.770993 16.3462 0.977442L13.2169 4.10707L17.1866 8.07645C17.6532 7.91776 18.155 7.89292 18.635 8.00475C19.115 8.11658 19.5541 8.3606 19.9025 8.70918C20.2528 9.05995 20.4974 9.50219 20.6083 9.98537C20.7192 10.4685 20.692 10.9732 20.5297 11.4416L24.3549 15.2675C25.2806 14.9487 26.3487 15.155 27.0877 15.8953C27.3334 16.1409 27.5283 16.4324 27.6613 16.7533C27.7942 17.0742 27.8627 17.4181 27.8627 17.7655C27.8627 18.1129 27.7942 18.4568 27.6613 18.7777C27.5283 19.0986 27.3334 19.3901 27.0877 19.6357C26.6554 20.0683 26.0866 20.3378 25.478 20.3983C24.8694 20.4587 24.2586 20.3064 23.7497 19.9672C23.2408 19.628 22.8651 19.123 22.6867 18.538C22.5082 17.953 22.538 17.3242 22.771 16.7587L19.2034 13.1911L19.203 22.58C19.4617 22.7079 19.6979 22.8768 19.9025 23.0802C20.1482 23.3258 20.3431 23.6174 20.476 23.9384C20.609 24.2593 20.6774 24.6033 20.6774 24.9507C20.6774 25.2981 20.609 25.6421 20.476 25.963C20.3431 26.284 20.1482 26.5756 19.9025 26.8212C18.869 27.8547 17.1941 27.8547 16.1622 26.8212C15.8539 26.5131 15.6265 26.1337 15.5003 25.7166C15.374 25.2995 15.3528 24.8576 15.4384 24.4303C15.5241 24.003 15.714 23.6035 15.9913 23.2673C16.2686 22.9311 16.6247 22.6686 17.0279 22.5032V13.0268C16.7035 12.8944 16.4091 12.698 16.1622 12.4495C15.3795 11.6677 15.1912 10.5192 15.5923 9.558L11.6793 5.64435L1.34635 15.9767C1.13987 16.1831 0.976077 16.4282 0.86433 16.698C0.752584 16.9678 0.695068 17.2569 0.695068 17.5489C0.695068 17.8409 0.752584 18.1301 0.86433 18.3998C0.976077 18.6696 1.13987 18.9147 1.34635 19.1212L16.4165 34.1907C16.8334 34.6075 17.3988 34.8416 17.9883 34.8416C18.5778 34.8416 19.1432 34.6075 19.5601 34.1907L34.5599 19.1915C34.9768 18.7744 35.211 18.2088 35.211 17.6191C35.211 17.0293 34.9768 16.4638 34.5599 16.0466Z" fill="#A77FFB"/>
</g>
<defs>
<clipPath id="clip0_7_3386">
<rect width="82.9384" height="35" fill="white" transform="translate(0.694824)"/>
</clipPath>
</defs>
</svg>
