<svg width="141" height="35" viewBox="0 0 141 35" fill="none" xmlns="http://www.w3.org/2000/svg">
<g id="JavaScript logo">
<path id="Vector" d="M10.4922 22.3825C10.4922 21.3325 10.1328 20.5753 9.41417 20.1291C8.70659 19.6828 7.67234 19.4594 6.31084 19.4594V15.5511C6.98575 15.5511 7.58484 15.5027 8.1075 15.4041C8.64125 15.2956 9.0875 15.1264 9.44684 14.8978C9.80617 14.6644 10.0728 14.3535 10.2472 13.9831C10.4321 13.6127 10.5138 13.1664 10.4922 12.6443V7.45092C10.4922 6.64592 10.5954 5.95934 10.8025 5.39351C11.0096 4.81017 11.3858 4.34817 11.9132 3.98884C12.4574 3.61901 13.1924 3.34717 14.1182 3.17217C15.0439 2.99717 16.2188 2.91667 17.6456 2.91667V6.59167C17.2459 6.60023 16.8473 6.63844 16.4533 6.70601C16.105 6.77192 15.8116 6.89092 15.5549 7.06534C15.3216 7.22867 15.1303 7.45734 14.9996 7.75134C14.8689 8.04534 14.8036 8.42626 14.8036 8.89467V13.7772C14.7383 15.8188 13.4643 17.0217 10.9828 17.4026V17.5986C12.2346 17.7835 13.1994 18.1819 13.8568 18.7746C14.5143 19.3673 14.8368 20.1845 14.8042 21.2071V26.0896C14.8042 26.558 14.8695 26.9389 15.0002 27.2329C15.1308 27.5269 15.3152 27.7556 15.5555 27.9189C15.8063 28.0939 16.1056 28.2129 16.4538 28.2783C16.8132 28.3442 17.2104 28.3815 17.6462 28.3926V32.0833C16.2199 32.0833 15.0445 31.9958 14.1188 31.822C13.193 31.6482 12.4586 31.3758 11.9138 31.0053C11.38 30.646 11.0096 30.177 10.8031 29.6007C10.5966 29.0243 10.4928 28.3325 10.4928 27.5269V22.3819M132.433 27.5269C132.433 28.3319 132.33 29.0238 132.122 29.6007C131.915 30.1776 131.539 30.646 130.995 31.0053C130.462 31.3752 129.733 31.647 128.808 31.822C127.883 31.997 126.711 32.0833 125.279 32.0833V28.3926C125.715 28.3798 126.107 28.343 126.455 28.2783C126.804 28.2135 127.097 28.0933 127.337 27.9189C127.588 27.7556 127.778 27.5269 127.909 27.2329C128.051 26.9389 128.121 26.558 128.121 26.0896V21.2071C128.089 20.1839 128.404 19.3725 129.069 18.7746C129.733 18.1767 130.686 17.7841 131.927 17.5986V17.4026C129.455 17.0217 128.194 15.813 128.122 13.7772V8.89467C128.122 8.42684 128.052 8.04534 127.91 7.75134C127.791 7.47141 127.592 7.23279 127.338 7.06534C127.105 6.89151 126.804 6.77134 126.456 6.70601C126.068 6.63682 125.674 6.59859 125.28 6.59167V2.91667C126.706 2.91667 127.882 3.00417 128.807 3.17801C129.733 3.35184 130.462 3.62426 130.995 3.99467C131.539 4.35401 131.915 4.82184 132.122 5.39934C132.329 5.96517 132.432 6.65117 132.432 7.45676V12.6502C132.421 13.1728 132.502 13.6185 132.677 13.9889C132.852 14.3593 133.118 14.6638 133.478 14.9036C133.837 15.1323 134.278 15.3003 134.801 15.4099C135.334 15.5079 135.938 15.5569 136.614 15.5569V19.4653C135.253 19.4653 134.213 19.6881 133.494 20.1349C132.787 20.5812 132.433 21.3325 132.433 22.3883V27.5333" fill="#A77FFB"/>
<g id="Group">
<g id="Vector_2">
<path d="M24.631 28.5384C24.26 28.5384 23.931 28.5133 23.6592 28.4614C23.3827 28.4177 23.1423 28.3564 22.9388 28.2759V26.53C23.2007 26.5986 23.4669 26.6496 23.7356 26.6828C24.0391 26.7281 24.3457 26.7502 24.6526 26.7488C24.9256 26.7486 25.1973 26.7119 25.4605 26.6397C25.7337 26.5759 25.988 26.4488 26.2031 26.2687C26.4288 26.0867 26.6114 25.8358 26.7491 25.5103C26.8868 25.1848 26.9568 24.7823 26.9568 24.2877V8.32767H28.9984V24.0742C28.9984 24.8325 28.8893 25.5004 28.6718 26.061C28.4606 26.621 28.1625 27.0836 27.7763 27.4476C27.3972 27.8186 26.9393 28.0916 26.4008 28.2666C25.8758 28.4486 25.1443 28.5396 24.4963 28.5396M39.1455 22.6333H39.058C38.8177 22.96 38.5779 23.2447 38.3376 23.485C38.1037 23.7133 37.8393 23.9081 37.5518 24.0637C37.2678 24.2165 36.951 24.3291 36.6022 24.402C36.2533 24.4749 35.8438 24.5111 35.3906 24.5111C34.8889 24.5111 34.4263 24.4376 34.004 24.2929C33.5938 24.1616 33.2174 23.9418 32.9015 23.6489C32.5958 23.3573 32.3555 22.9793 32.1811 22.5406C32.0061 22.0897 31.9186 21.5583 31.9186 20.9469C31.9186 19.7534 32.3368 18.8364 33.1739 18.1959C34.018 17.5554 35.299 17.206 37.0163 17.1477L39.0248 17.0707V16.3123C39.0248 15.8247 38.9699 15.4169 38.8614 15.0897C38.7593 14.763 38.6065 14.5063 38.4029 14.3039C38.2063 14.0998 37.9596 13.9539 37.6603 13.8664C37.3687 13.7789 37.0344 13.7358 36.6558 13.7358C36.0813 13.7309 35.5098 13.8194 34.9636 13.9977C34.4468 14.1727 33.9486 14.3827 33.4679 14.6306L32.7691 13.1349C33.3075 12.8433 33.9078 12.5965 34.5704 12.3923C35.2461 12.1866 35.9489 12.0836 36.6553 12.0867C37.3978 12.0867 38.0378 12.1637 38.5768 12.3159C39.1228 12.4618 39.5702 12.698 39.9196 13.0253C40.2696 13.3461 40.542 13.7568 40.7164 14.259C40.8908 14.7613 40.9789 15.3691 40.9789 16.0819V24.2912H39.5451L39.1455 22.6333ZM35.9033 22.9005C36.3467 22.9005 36.7585 22.8305 37.1371 22.6928C37.5157 22.5552 37.8371 22.3469 38.1194 22.0704C38.3959 21.7863 38.6106 21.4334 38.7634 21.0117C38.9233 20.5823 39.0038 20.0801 39.0038 19.5049V18.424L37.4428 18.501C36.7877 18.5302 36.2382 18.6031 35.7943 18.7192C35.3503 18.8353 34.9939 18.9992 34.7244 19.2103C34.4697 19.4045 34.2733 19.665 34.1568 19.9634C34.0402 20.2551 33.9818 20.5858 33.9818 20.9568C33.9818 21.6265 34.1568 22.1235 34.5057 22.4303C34.8557 22.7436 35.3223 22.8999 35.9028 22.8999M42.6461 12.3066H44.6983L46.8706 18.9758L47.1547 19.9092L47.4813 21.0665L47.7759 22.1748L47.9614 22.9717H48.0373L48.2228 22.1748L48.5173 21.0665L48.844 19.9092L49.1281 18.9758L51.3004 12.306H53.3526L49.2588 24.2923H46.7364L42.6461 12.3066ZM61.4714 22.6333H61.3839C61.1436 22.96 60.9038 23.2447 60.6635 23.485C60.4297 23.7133 60.1652 23.9081 59.8778 24.0637C59.5937 24.2165 59.2769 24.3291 58.9281 24.402C58.5793 24.4749 58.1698 24.5111 57.7165 24.5111C57.2148 24.5111 56.7523 24.4376 56.3299 24.2929C55.9197 24.1616 55.5433 23.9418 55.2274 23.6489C54.9218 23.3573 54.6814 22.9793 54.507 22.5406C54.332 22.0897 54.2445 21.5583 54.2445 20.9469C54.2445 19.7534 54.6628 18.8364 55.4998 18.1959C56.3439 17.5554 57.6249 17.206 59.3423 17.1477L61.3507 17.0707V16.3123C61.3507 15.8247 61.2958 15.4169 61.1873 15.0897C61.0853 14.763 60.9324 14.5063 60.7288 14.3039C60.5323 14.0998 60.2855 13.9539 59.9863 13.8664C59.6946 13.7789 59.3603 13.7358 58.9818 13.7358C58.4072 13.7309 57.8357 13.8194 57.2895 13.9977C56.7727 14.1727 56.2745 14.3827 55.7938 14.6306L55.095 13.1349C55.6334 12.8433 56.2337 12.5965 56.8963 12.3923C57.5721 12.1866 58.2748 12.0836 58.9812 12.0867C59.7238 12.0867 60.3637 12.1637 60.9027 12.3159C61.4487 12.4618 61.8961 12.698 62.2455 13.0253C62.5955 13.3461 62.8679 13.7568 63.0423 14.259C63.2168 14.7613 63.3048 15.3691 63.3048 16.0819V24.2912H61.8757L61.4714 22.6333ZM58.2293 22.9058C58.6726 22.9058 59.0844 22.8358 59.463 22.6981C59.8416 22.5604 60.163 22.3522 60.4453 22.0757C60.7218 21.7916 60.9365 21.4387 61.0893 21.0169C61.2492 20.5876 61.3297 20.0853 61.3297 19.5102V18.4293L59.7687 18.5063C59.1136 18.5354 58.5641 18.6083 58.1202 18.7244C57.6763 18.8405 57.3198 19.0044 57.0503 19.2156C56.7956 19.4097 56.5992 19.6703 56.4828 19.9687C56.3661 20.2603 56.3078 20.5911 56.3078 20.9621C56.3078 21.6318 56.4828 22.1288 56.8316 22.4356C57.1816 22.7488 57.6483 22.9052 58.2287 22.9052M75.5502 20.0235C75.5502 20.7235 75.423 21.3623 75.1681 21.9228C74.9208 22.4758 74.5638 22.9454 74.0983 23.331C73.6328 23.7166 73.0646 24.0118 72.3949 24.2153C71.7253 24.4119 70.9716 24.5099 70.1351 24.5099C69.3272 24.5099 68.5706 24.444 67.8648 24.3133C67.1659 24.1891 66.5803 24.0042 66.1072 23.7563V21.8138L66.9472 22.1638L67.9517 22.4583L69.0326 22.6765C69.3999 22.7274 69.7702 22.7531 70.1409 22.7535C71.3053 22.7535 72.1639 22.5353 72.7169 22.0984C73.2769 21.6609 73.5569 21.0356 73.5569 20.2201C73.5569 19.8269 73.5021 19.4851 73.3936 19.1934C73.2915 18.9018 73.106 18.6369 72.8371 18.3966C72.5746 18.1493 72.2223 17.9124 71.7783 17.6873C71.335 17.4539 70.7738 17.2031 70.0972 16.9289C69.4555 16.674 68.8856 16.4039 68.4055 16.0994C67.9388 15.7938 67.5393 15.4578 67.2272 15.0728C66.9195 14.69 66.6861 14.2532 66.5388 13.7848C66.393 13.3047 66.3207 12.7581 66.3207 12.1473C66.3207 11.5068 66.4373 10.9358 66.6707 10.4335C66.904 9.93126 67.2307 9.50892 67.653 9.16767C68.0753 8.81767 68.577 8.55284 69.1592 8.37084C69.7413 8.18884 70.3958 8.09784 71.1017 8.09784C71.9679 8.09784 72.7467 8.18126 73.4379 8.34867C74.1292 8.50851 74.7446 8.71617 75.283 8.97109L74.5515 10.6744C74.0848 10.4633 73.54 10.2813 72.9357 10.1284C72.3306 9.96731 71.7069 9.88651 71.0807 9.88809C70.1928 9.88809 69.5057 10.0958 69.0174 10.5105C68.5298 10.9188 68.2859 11.4713 68.2859 12.1695C68.2859 12.5778 68.3408 12.9453 68.4493 13.2504C68.5583 13.5491 68.7409 13.8221 68.9953 14.0694C69.2502 14.3098 69.5786 14.539 69.9998 14.7578C70.5056 15.0072 71.0228 15.233 71.5497 15.4344C72.2118 15.6969 72.7904 15.9594 73.2851 16.2423C73.7868 16.5188 74.2056 16.8257 74.5404 17.1757C74.8734 17.5224 75.13 17.9352 75.2935 18.3873C75.4685 18.8458 75.5607 19.4081 75.5607 20.0346M82.9474 24.4983C82.2124 24.4983 81.5241 24.3851 80.8842 24.1599C80.2501 23.9311 79.6782 23.5574 79.2141 23.0685C78.7474 22.5668 78.37 21.9298 78.1058 21.1581C77.8363 20.3793 77.7021 19.4443 77.7021 18.3581C77.7021 17.2148 77.8403 16.2476 78.1104 15.4543C78.3869 14.6539 78.7655 14.0058 79.2456 13.5118C79.7333 13.0101 80.2956 12.6455 80.9489 12.4209C81.6023 12.1963 82.2918 12.0826 83.0338 12.0826C83.592 12.0817 84.1485 12.1439 84.6928 12.2681C85.2388 12.3923 85.6932 12.5446 86.0578 12.7266L85.4744 14.4078C85.2925 14.3292 85.1068 14.2599 84.9179 14.2001C84.711 14.1254 84.4996 14.0634 84.285 14.0146C84.0733 13.9576 83.8582 13.9137 83.641 13.8833C83.4298 13.8472 83.2298 13.8285 83.0402 13.8285C81.8968 13.8285 81.0644 14.196 80.5406 14.9368C80.0168 15.6643 79.7548 16.8 79.7548 18.3423C79.7548 19.8783 80.0173 21.0023 80.5406 21.7158C81.0656 22.4158 81.8823 22.7745 82.9533 22.7745C83.5366 22.7745 84.0733 22.7086 84.5469 22.5779C85.027 22.4397 85.4639 22.2863 85.8571 22.0978V23.8665C85.4572 24.0801 85.0316 24.2414 84.5907 24.3466C84.1473 24.4557 83.5716 24.5099 82.9241 24.5099M93.7723 12.0873L94.4817 12.1193C94.7087 12.1298 94.9348 12.1555 95.1583 12.1963L94.8958 14.0303L94.2629 13.9428C94.0518 13.9137 93.8517 13.8991 93.6621 13.8991C93.2036 13.8991 92.7853 13.9936 92.4068 14.1832C92.0276 14.3652 91.7068 14.6306 91.4244 14.98C91.1549 15.3218 90.9443 15.7372 90.7915 16.2243C90.6457 16.7043 90.5733 17.2393 90.5733 17.8284V24.2906H88.5865V12.3072H90.2023L90.4427 14.5005H90.5302L91.1088 13.5946C91.3091 13.3135 91.5439 13.0588 91.8077 12.8363C92.0678 12.6118 92.3628 12.4311 92.6809 12.3013C93.0018 12.1631 93.3984 12.0937 93.8068 12.0937" fill="#A77FFB"/>
<path d="M24.631 28.5384C24.26 28.5384 23.931 28.5133 23.6592 28.4614C23.3827 28.4177 23.1423 28.3564 22.9388 28.2759V26.53C23.2007 26.5986 23.4669 26.6496 23.7356 26.6828C24.0391 26.7281 24.3457 26.7502 24.6526 26.7488C24.9256 26.7486 25.1973 26.7119 25.4605 26.6397C25.7337 26.5759 25.988 26.4488 26.2031 26.2687C26.4288 26.0867 26.6114 25.8358 26.7491 25.5103C26.8868 25.1848 26.9568 24.7823 26.9568 24.2877V8.32767H28.9984V24.0742C28.9984 24.8325 28.8893 25.5004 28.6718 26.061C28.4606 26.621 28.1625 27.0836 27.7763 27.4476C27.3972 27.8186 26.9393 28.0916 26.4008 28.2666C25.8758 28.4486 25.1443 28.5396 24.4963 28.5396M35.9033 22.9005C36.3467 22.9005 36.7585 22.8305 37.1371 22.6928C37.5157 22.5552 37.8371 22.3469 38.1194 22.0704C38.3959 21.7863 38.6106 21.4334 38.7634 21.0117C38.9233 20.5823 39.0038 20.0801 39.0038 19.5049V18.424L37.4428 18.501C36.7877 18.5302 36.2382 18.6031 35.7943 18.7192C35.3503 18.8353 34.9939 18.9992 34.7244 19.2103C34.4697 19.4045 34.2733 19.665 34.1568 19.9634C34.0402 20.2551 33.9818 20.5858 33.9818 20.9568C33.9818 21.6265 34.1568 22.1235 34.5057 22.4303C34.8557 22.7436 35.3223 22.8999 35.9028 22.8999M58.2293 22.9058C58.6726 22.9058 59.0844 22.8358 59.463 22.6981C59.8416 22.5604 60.163 22.3522 60.4453 22.0757C60.7218 21.7916 60.9365 21.4387 61.0893 21.0169C61.2492 20.5876 61.3297 20.0853 61.3297 19.5102V18.4293L59.7687 18.5063C59.1136 18.5354 58.5641 18.6083 58.1202 18.7244C57.6763 18.8405 57.3198 19.0044 57.0503 19.2156C56.7956 19.4097 56.5992 19.6703 56.4828 19.9687C56.3661 20.2603 56.3078 20.5911 56.3078 20.9621C56.3078 21.6318 56.4828 22.1288 56.8316 22.4356C57.1816 22.7488 57.6483 22.9052 58.2287 22.9052M75.5502 20.0235C75.5502 20.7235 75.423 21.3623 75.1681 21.9228C74.9208 22.4758 74.5638 22.9454 74.0983 23.331C73.6328 23.7166 73.0646 24.0118 72.3949 24.2153C71.7253 24.4119 70.9716 24.5099 70.1351 24.5099C69.3272 24.5099 68.5706 24.444 67.8648 24.3133C67.1659 24.1891 66.5803 24.0042 66.1072 23.7563V21.8138L66.9472 22.1638L67.9517 22.4583L69.0326 22.6765C69.3999 22.7274 69.7702 22.7531 70.1409 22.7535C71.3053 22.7535 72.1639 22.5353 72.7169 22.0984C73.2769 21.6609 73.5569 21.0356 73.5569 20.2201C73.5569 19.8269 73.5021 19.4851 73.3936 19.1934C73.2915 18.9018 73.106 18.6369 72.8371 18.3966C72.5746 18.1493 72.2223 17.9124 71.7783 17.6873C71.335 17.4539 70.7738 17.2031 70.0972 16.9289C69.4555 16.674 68.8856 16.4039 68.4055 16.0994C67.9388 15.7938 67.5393 15.4578 67.2272 15.0728C66.9195 14.69 66.6861 14.2532 66.5388 13.7848C66.393 13.3047 66.3207 12.7581 66.3207 12.1473C66.3207 11.5068 66.4373 10.9358 66.6707 10.4335C66.904 9.93126 67.2307 9.50892 67.653 9.16767C68.0753 8.81767 68.577 8.55284 69.1592 8.37084C69.7413 8.18884 70.3958 8.09784 71.1017 8.09784C71.9679 8.09784 72.7467 8.18126 73.4379 8.34867C74.1292 8.50851 74.7446 8.71617 75.283 8.97109L74.5515 10.6744C74.0848 10.4633 73.54 10.2813 72.9357 10.1284C72.3306 9.96731 71.7069 9.88651 71.0807 9.88809C70.1928 9.88809 69.5057 10.0958 69.0174 10.5105C68.5298 10.9188 68.2859 11.4713 68.2859 12.1695C68.2859 12.5778 68.3408 12.9453 68.4493 13.2504C68.5583 13.5491 68.7409 13.8221 68.9953 14.0694C69.2502 14.3098 69.5786 14.539 69.9998 14.7578C70.5056 15.0072 71.0228 15.233 71.5497 15.4344C72.2118 15.6969 72.7904 15.9594 73.2851 16.2423C73.7868 16.5188 74.2056 16.8257 74.5404 17.1757C74.8734 17.5224 75.13 17.9352 75.2935 18.3873C75.4685 18.8458 75.5607 19.4081 75.5607 20.0346M82.9474 24.4983C82.2124 24.4983 81.5241 24.3851 80.8842 24.1599C80.2501 23.9311 79.6782 23.5574 79.2141 23.0685C78.7474 22.5668 78.37 21.9298 78.1058 21.1581C77.8363 20.3793 77.7021 19.4443 77.7021 18.3581C77.7021 17.2148 77.8403 16.2476 78.1104 15.4543C78.3869 14.6539 78.7655 14.0058 79.2456 13.5118C79.7333 13.0101 80.2956 12.6455 80.9489 12.4209C81.6023 12.1963 82.2918 12.0826 83.0338 12.0826C83.592 12.0817 84.1485 12.1439 84.6928 12.2681C85.2388 12.3923 85.6932 12.5446 86.0578 12.7266L85.4744 14.4078C85.2925 14.3292 85.1068 14.2599 84.9179 14.2001C84.711 14.1254 84.4996 14.0634 84.285 14.0146C84.0733 13.9576 83.8582 13.9137 83.641 13.8833C83.4298 13.8472 83.2298 13.8285 83.0402 13.8285C81.8968 13.8285 81.0644 14.196 80.5406 14.9368C80.0168 15.6643 79.7548 16.8 79.7548 18.3423C79.7548 19.8783 80.0173 21.0023 80.5406 21.7158C81.0656 22.4158 81.8823 22.7745 82.9533 22.7745C83.5366 22.7745 84.0733 22.7086 84.5469 22.5779C85.027 22.4397 85.4639 22.2863 85.8571 22.0978V23.8665C85.4572 24.0801 85.0316 24.2414 84.5907 24.3466C84.1473 24.4557 83.5716 24.5099 82.9241 24.5099M93.7723 12.0873L94.4817 12.1193C94.7087 12.1298 94.9348 12.1555 95.1583 12.1963L94.8958 14.0303L94.2629 13.9428C94.0518 13.9137 93.8517 13.8991 93.6621 13.8991C93.2036 13.8991 92.7853 13.9936 92.4068 14.1832C92.0276 14.3652 91.7068 14.6306 91.4244 14.98C91.1549 15.3218 90.9443 15.7372 90.7915 16.2243C90.6457 16.7043 90.5733 17.2393 90.5733 17.8284V24.2906H88.5865V12.3072H90.2023L90.4427 14.5005H90.5302L91.1088 13.5946C91.3091 13.3135 91.5439 13.0588 91.8077 12.8363C92.0678 12.6118 92.3628 12.4311 92.6809 12.3013C93.0018 12.1631 93.3984 12.0937 93.8068 12.0937M39.1455 22.6333H39.058C38.8177 22.96 38.5779 23.2447 38.3376 23.485C38.1037 23.7133 37.8393 23.9081 37.5518 24.0637C37.2678 24.2165 36.951 24.3291 36.6022 24.402C36.2533 24.4749 35.8438 24.5111 35.3906 24.5111C34.8889 24.5111 34.4263 24.4376 34.004 24.2929C33.5938 24.1616 33.2174 23.9418 32.9015 23.6489C32.5958 23.3573 32.3555 22.9793 32.1811 22.5406C32.0061 22.0897 31.9186 21.5583 31.9186 20.9469C31.9186 19.7534 32.3368 18.8364 33.1739 18.1959C34.018 17.5554 35.299 17.206 37.0163 17.1477L39.0248 17.0707V16.3123C39.0248 15.8247 38.9699 15.4169 38.8614 15.0897C38.7593 14.763 38.6065 14.5063 38.4029 14.3039C38.2063 14.0998 37.9596 13.9539 37.6603 13.8664C37.3687 13.7789 37.0344 13.7358 36.6558 13.7358C36.0813 13.7309 35.5098 13.8194 34.9636 13.9977C34.4468 14.1727 33.9486 14.3827 33.4679 14.6306L32.7691 13.1349C33.3075 12.8433 33.9078 12.5965 34.5704 12.3923C35.2461 12.1866 35.9489 12.0836 36.6553 12.0867C37.3978 12.0867 38.0378 12.1637 38.5768 12.3159C39.1228 12.4618 39.5702 12.698 39.9196 13.0253C40.2696 13.3461 40.542 13.7568 40.7164 14.259C40.8908 14.7613 40.9789 15.3691 40.9789 16.0819V24.2912H39.5451L39.1455 22.6333ZM42.6461 12.3066H44.6983L46.8706 18.9758L47.1547 19.9092L47.4813 21.0665L47.7759 22.1748L47.9614 22.9717H48.0373L48.2228 22.1748L48.5173 21.0665L48.844 19.9092L49.1281 18.9758L51.3004 12.306H53.3526L49.2588 24.2923H46.7364L42.6461 12.3066ZM61.4714 22.6333H61.3839C61.1436 22.96 60.9038 23.2447 60.6635 23.485C60.4297 23.7133 60.1652 23.9081 59.8778 24.0637C59.5937 24.2165 59.2769 24.3291 58.9281 24.402C58.5793 24.4749 58.1698 24.5111 57.7165 24.5111C57.2148 24.5111 56.7523 24.4376 56.3299 24.2929C55.9197 24.1616 55.5433 23.9418 55.2274 23.6489C54.9218 23.3573 54.6814 22.9793 54.507 22.5406C54.332 22.0897 54.2445 21.5583 54.2445 20.9469C54.2445 19.7534 54.6628 18.8364 55.4998 18.1959C56.3439 17.5554 57.6249 17.206 59.3423 17.1477L61.3507 17.0707V16.3123C61.3507 15.8247 61.2958 15.4169 61.1873 15.0897C61.0853 14.763 60.9324 14.5063 60.7288 14.3039C60.5323 14.0998 60.2855 13.9539 59.9863 13.8664C59.6946 13.7789 59.3603 13.7358 58.9818 13.7358C58.4072 13.7309 57.8357 13.8194 57.2895 13.9977C56.7727 14.1727 56.2745 14.3827 55.7938 14.6306L55.095 13.1349C55.6334 12.8433 56.2337 12.5965 56.8963 12.3923C57.5721 12.1866 58.2748 12.0836 58.9812 12.0867C59.7238 12.0867 60.3637 12.1637 60.9027 12.3159C61.4487 12.4618 61.8961 12.698 62.2455 13.0253C62.5955 13.3461 62.8679 13.7568 63.0423 14.259C63.2168 14.7613 63.3048 15.3691 63.3048 16.0819V24.2912H61.8757L61.4714 22.6333Z" stroke="#A77FFB" stroke-width="2.129"/>
</g>
<g id="Vector_3">
<path d="M99.3572 24.2923H97.3698V12.306H99.3566V24.2923M97.5448 8.10833C97.7705 7.91175 98.0464 7.81375 98.3743 7.81375C98.5341 7.81375 98.6834 7.83883 98.8217 7.89075C98.9617 7.93122 99.0893 8.00624 99.1927 8.10892C99.3018 8.211 99.3852 8.34225 99.4435 8.50208C99.5088 8.65492 99.5415 8.84042 99.5415 9.05858C99.5415 9.48092 99.4248 9.79708 99.1915 10.0083C98.9658 10.2124 98.6928 10.3139 98.3725 10.3139C98.0458 10.3139 97.76 10.1605 97.5343 9.95692C97.3161 9.75275 97.2134 9.43658 97.2134 9.03233C97.2146 8.62108 97.3243 8.30492 97.5424 8.10833H97.5448Z" fill="#A77FFB"/>
<path d="M99.3572 24.2923H97.3698V12.306H99.3566V24.2923M97.5448 8.10833C97.7705 7.91175 98.0464 7.81375 98.3743 7.81375C98.5341 7.81375 98.6834 7.83883 98.8217 7.89075C98.9617 7.93122 99.0893 8.00624 99.1927 8.10892C99.3018 8.211 99.3852 8.34225 99.4435 8.50208C99.5088 8.65492 99.5415 8.84042 99.5415 9.05858C99.5415 9.48092 99.4248 9.79708 99.1915 10.0083C98.9658 10.2124 98.6928 10.3139 98.3725 10.3139C98.0458 10.3139 97.76 10.1605 97.5343 9.95692C97.3161 9.75275 97.2134 9.43658 97.2134 9.03233C97.2146 8.62108 97.3243 8.30492 97.5424 8.10833H97.5448Z" stroke="#A77FFB" stroke-width="2.129" stroke-linecap="square"/>
</g>
<g id="Vector_4">
<path d="M108.468 24.5105C108.039 24.5105 107.649 24.4638 107.3 24.3687C106.952 24.2737 106.634 24.1506 106.351 23.9977C106.074 23.8379 105.827 23.6518 105.608 23.4407C105.401 23.2345 105.211 23.012 105.041 22.7751H104.909L104.975 23.4844L105.018 24.0677L105.04 24.5373V29.6572H103.053V12.306H104.669L104.953 13.9218H105.041C105.207 13.6682 105.397 13.4307 105.608 13.2125C105.822 12.9846 106.069 12.7896 106.34 12.6338C106.624 12.4664 106.941 12.3352 107.289 12.2407C107.639 12.1386 108.032 12.0878 108.468 12.0878C109.152 12.0878 109.774 12.2191 110.334 12.481C110.902 12.7488 111.393 13.1541 111.764 13.6599C112.164 14.1767 112.473 14.8266 112.697 15.5919C112.921 16.3572 113.024 17.2585 113.024 18.2776C113.024 19.3042 112.915 20.2061 112.697 20.9842C112.479 21.7554 112.17 22.4035 111.764 22.9268C111.371 23.4506 110.889 23.8472 110.335 24.1167C109.775 24.3792 109.014 24.5099 108.331 24.5099M108.086 13.7357C107.533 13.7357 107.063 13.8192 106.677 13.9866C106.303 14.1504 105.982 14.415 105.749 14.7507C105.516 15.0926 105.341 15.5184 105.226 16.0341C105.116 16.5433 105.055 17.1436 105.04 17.8354V18.2828C105.04 19.0178 105.087 19.6729 105.182 20.2475C105.284 20.8151 105.451 21.2957 105.683 21.6883C105.913 22.0644 106.242 22.3703 106.633 22.5727C107.026 22.7692 107.517 22.8672 108.107 22.8672C109.089 22.8672 109.81 22.4706 110.268 21.6772C110.733 20.8839 110.967 19.7452 110.967 18.2607C110.967 16.7469 110.733 15.6152 110.268 14.8657C109.809 14.1161 109.081 13.7416 108.084 13.7416M119.653 22.8842C119.784 22.8842 119.93 22.8725 120.091 22.862L120.571 22.8072L120.979 22.7302L121.274 22.6532V24.1599C121.179 24.2037 121.059 24.2474 120.913 24.2912C120.767 24.3349 120.607 24.3705 120.433 24.4002C120.253 24.4372 120.07 24.463 119.887 24.4772C119.702 24.4989 119.516 24.5096 119.331 24.5093C118.906 24.5129 118.483 24.4539 118.075 24.3343C117.695 24.2214 117.35 24.015 117.071 23.7341C116.794 23.45 116.576 23.0691 116.416 22.5878C116.256 22.1002 116.175 21.4888 116.175 20.7538V13.8005H114.484V12.9162L116.175 12.0645L117.027 9.55383H118.173V12.3048H121.186V13.8005H118.173V20.7538C118.173 21.4538 118.286 21.9905 118.512 22.3475C118.745 22.6975 119.123 22.8824 119.647 22.8824" fill="#A77FFB"/>
<path d="M108.468 24.5105C108.039 24.5105 107.649 24.4638 107.3 24.3687C106.952 24.2737 106.634 24.1506 106.351 23.9977C106.074 23.8379 105.827 23.6518 105.608 23.4407C105.401 23.2345 105.211 23.012 105.041 22.7751H104.909L104.975 23.4844L105.018 24.0677L105.04 24.5373V29.6572H103.053V12.306H104.669L104.953 13.9218H105.041C105.207 13.6682 105.397 13.4307 105.608 13.2125C105.822 12.9846 106.069 12.7896 106.34 12.6338C106.624 12.4664 106.941 12.3352 107.289 12.2407C107.639 12.1386 108.032 12.0878 108.468 12.0878C109.152 12.0878 109.774 12.2191 110.334 12.481C110.902 12.7488 111.393 13.1541 111.764 13.6599C112.164 14.1767 112.473 14.8266 112.697 15.5919C112.921 16.3572 113.024 17.2585 113.024 18.2776C113.024 19.3042 112.915 20.2061 112.697 20.9842C112.479 21.7554 112.17 22.4035 111.764 22.9267C111.371 23.4506 110.889 23.8472 110.335 24.1167C109.775 24.3792 109.014 24.5099 108.331 24.5099M108.086 13.7357C107.533 13.7357 107.063 13.8192 106.677 13.9866C106.303 14.1504 105.982 14.415 105.749 14.7507C105.516 15.0926 105.341 15.5184 105.226 16.0341C105.116 16.5433 105.055 17.1436 105.04 17.8354V18.2828C105.04 19.0178 105.087 19.6729 105.182 20.2475C105.284 20.8151 105.451 21.2957 105.683 21.6883C105.913 22.0644 106.242 22.3703 106.633 22.5727C107.026 22.7692 107.517 22.8672 108.107 22.8672C109.089 22.8672 109.81 22.4706 110.268 21.6772C110.733 20.8839 110.967 19.7452 110.967 18.2607C110.967 16.7469 110.733 15.6152 110.268 14.8657C109.809 14.1161 109.081 13.7416 108.084 13.7416M119.653 22.8842C119.784 22.8842 119.93 22.8725 120.091 22.862L120.571 22.8072L120.979 22.7302L121.274 22.6532V24.1599C121.179 24.2037 121.059 24.2474 120.913 24.2912C120.767 24.3349 120.607 24.3705 120.433 24.4002C120.253 24.4372 120.07 24.463 119.887 24.4772C119.702 24.4989 119.516 24.5096 119.331 24.5093C118.906 24.5129 118.483 24.4539 118.075 24.3343C117.695 24.2214 117.35 24.015 117.071 23.7341C116.794 23.45 116.576 23.0691 116.416 22.5878C116.256 22.1002 116.175 21.4888 116.175 20.7538V13.8005H114.484V12.9162L116.175 12.0645L117.027 9.55383H118.173V12.3048H121.186V13.8005H118.173V20.7538C118.173 21.4538 118.286 21.9905 118.512 22.3475C118.745 22.6975 119.123 22.8824 119.647 22.8824" stroke="#A77FFB" stroke-width="2.129"/>
</g>
</g>
</g>
</svg>
