<svg width="124" height="25" viewBox="0 0 124 25" fill="none" xmlns="http://www.w3.org/2000/svg">
<g id="Nextjs-logo logo" clip-path="url(#clip0_16_587)">
<path id="Vector" d="M82.2028 0.0103302H103.649V3.96874H95.1415V24.7934H90.8875V3.96874H82.2028V0.0103302Z" fill="#A77FFB"/>
<path id="Vector_2" d="M46.9318 0.0103302V3.96874H29.7412V10.3366H43.5659V14.295H29.7412V20.835H46.9318V24.7934H25.4875V3.96874H25.4857V0.0103302H46.9318Z" fill="#A77FFB"/>
<path id="Vector_3" d="M57.6406 0.0206757H52.0737L72.0131 24.8038H77.5962L67.6253 12.4208L77.5803 0.0395836L72.0131 0.0481867L64.8381 8.95929L57.6406 0.0206757Z" fill="#A77FFB"/>
<path id="Vector_4" d="M63.3531 17.7234L60.5653 14.2571L52.0578 24.8227H57.6406L63.3531 17.7234Z" fill="#A77FFB"/>
<path id="Vector_5" fill-rule="evenodd" clip-rule="evenodd" d="M25.6365 24.7934L5.67031 0H0.353088V24.7831H4.60687V5.29738L20.2927 24.7934H25.6365Z" fill="#A77FFB"/>
<path id="Vector_6" d="M104.605 24.6421C104.294 24.6421 104.029 24.5342 103.807 24.3183C103.585 24.1025 103.475 23.8412 103.478 23.5316C103.475 23.2305 103.585 22.9721 103.807 22.7562C104.029 22.5404 104.294 22.4324 104.605 22.4324C104.905 22.4324 105.167 22.5404 105.389 22.7562C105.614 22.9721 105.726 23.2305 105.729 23.5316C105.726 23.7361 105.674 23.9235 105.571 24.0911C105.464 24.2615 105.329 24.395 105.158 24.4916C104.991 24.591 104.807 24.6421 104.605 24.6421Z" fill="#A77FFB"/>
<path id="Vector_7" d="M111.866 14.2017H113.751V21.4639C113.748 22.1314 113.603 22.7023 113.321 23.1823C113.036 23.6622 112.641 24.0286 112.134 24.287C111.629 24.5426 111.038 24.6733 110.367 24.6733C109.753 24.6733 109.202 24.5625 108.712 24.3467C108.222 24.1308 107.833 23.8071 107.548 23.381C107.26 22.955 107.118 22.4239 107.118 21.7877H109.007C109.009 22.0661 109.073 22.3074 109.194 22.5091C109.315 22.7108 109.482 22.8641 109.695 22.972C109.911 23.08 110.159 23.1339 110.439 23.1339C110.742 23.1339 111.001 23.0714 111.211 22.9436C111.422 22.8187 111.583 22.6312 111.696 22.3813C111.805 22.1342 111.863 21.8275 111.866 21.4639V14.2017Z" fill="#A77FFB"/>
<path id="Vector_8" d="M121.507 17.0418C121.461 16.6016 121.259 16.2579 120.907 16.0137C120.552 15.7666 120.094 15.6445 119.532 15.6445C119.137 15.6445 118.797 15.7041 118.515 15.8206C118.232 15.9398 118.013 16.0989 117.863 16.3005C117.714 16.5022 117.639 16.7323 117.633 16.9907C117.633 17.2066 117.685 17.394 117.786 17.5502C117.887 17.7093 118.022 17.8427 118.198 17.9507C118.371 18.0614 118.564 18.1523 118.774 18.2262C118.987 18.3 119.201 18.3625 119.414 18.4136L120.397 18.655C120.792 18.7459 121.175 18.8681 121.541 19.0243C121.907 19.1776 122.239 19.3736 122.53 19.6093C122.821 19.8451 123.052 20.1291 123.222 20.4614C123.392 20.7937 123.478 21.1828 123.478 21.6315C123.478 22.2364 123.322 22.7676 123.008 23.2277C122.694 23.6849 122.242 24.0428 121.648 24.3013C121.057 24.5569 120.342 24.6875 119.501 24.6875C118.688 24.6875 117.979 24.5626 117.382 24.3126C116.783 24.0655 116.316 23.702 115.978 23.2248C115.641 22.7477 115.46 22.1654 115.434 21.481H117.302C117.327 21.8388 117.443 22.1371 117.639 22.3785C117.837 22.617 118.097 22.7931 118.414 22.9124C118.734 23.0288 119.091 23.0885 119.486 23.0885C119.898 23.0885 120.262 23.026 120.576 22.9039C120.887 22.7817 121.132 22.6114 121.308 22.3898C121.487 22.1711 121.576 21.9127 121.579 21.6173C121.576 21.3475 121.495 21.1231 121.339 20.947C121.181 20.7709 120.962 20.6233 120.682 20.504C120.4 20.3847 120.071 20.2768 119.697 20.183L118.503 19.882C117.642 19.6633 116.958 19.331 116.46 18.8851C115.958 18.4392 115.71 17.8484 115.71 17.1072C115.71 16.4994 115.877 15.9654 116.215 15.5082C116.549 15.0509 117.007 14.6959 117.587 14.4431C118.169 14.1875 118.826 14.0625 119.558 14.0625C120.302 14.0625 120.953 14.1875 121.515 14.4431C122.077 14.6959 122.518 15.0481 122.838 15.4968C123.158 15.9455 123.325 16.4596 123.334 17.0418H121.507Z" fill="#A77FFB"/>
</g>
<defs>
<clipPath id="clip0_16_587">
<rect width="123.125" height="25" fill="white" transform="translate(0.353088)"/>
</clipPath>
</defs>
</svg>
