<svg width="110" height="37" viewBox="0 0 110 37" fill="none" xmlns="http://www.w3.org/2000/svg">
<g id="react js logo">
<g id="Group">
<path id="Vector" d="M20.9659 22.1556C23.004 22.1556 24.6562 20.5034 24.6562 18.4654C24.6562 16.4273 23.004 14.7751 20.9659 14.7751C18.9279 14.7751 17.2757 16.4273 17.2757 18.4654C17.2757 20.5034 18.9279 22.1556 20.9659 22.1556Z" fill="#A77FFB"/>
<g id="Group_2">
<path id="Vector_2" fill-rule="evenodd" clip-rule="evenodd" d="M20.966 10.9622C25.9207 10.9622 30.5235 11.6731 33.9939 12.8679C38.1754 14.3075 40.7463 16.4895 40.7463 18.4653C40.7463 20.5242 38.0216 22.8423 33.5313 24.3301C30.1365 25.4548 25.6692 26.042 20.966 26.042C16.1438 26.042 11.5775 25.4908 8.1445 24.3177C3.80108 22.8331 1.185 20.485 1.185 18.4653C1.185 16.5055 3.63969 14.3404 7.76235 12.903C11.2458 11.6885 15.9622 10.9622 20.9653 10.9622H20.966Z" stroke="#A77FFB" stroke-width="1.66272"/>
<path id="Vector_3" fill-rule="evenodd" clip-rule="evenodd" d="M14.4343 14.7354C16.9096 10.4433 19.8248 6.81122 22.5936 4.4017C25.9295 1.49858 29.1041 0.361642 30.8156 1.34859C32.5993 2.37718 33.2462 5.89562 32.2918 10.5286C31.5709 14.0313 29.8471 18.1944 27.4974 22.2687C25.0883 26.446 22.3299 30.1264 19.5988 32.5136C16.143 35.5345 12.8019 36.6278 11.0522 35.6187C9.35448 34.6404 8.70524 31.4317 9.5197 27.1422C10.2079 23.5179 11.9348 19.0694 14.4335 14.7353L14.4343 14.7354Z" stroke="#A77FFB" stroke-width="1.66272"/>
<path id="Vector_4" fill-rule="evenodd" clip-rule="evenodd" d="M14.4405 22.2797C11.9582 17.9925 10.2682 13.6521 9.56271 10.05C8.71354 5.70996 9.31393 2.39168 11.0239 1.40185C12.8058 0.370251 16.1771 1.56692 19.7143 4.70763C22.3886 7.08215 25.1347 10.654 27.4912 14.7245C29.9072 18.8978 31.718 23.1258 32.4224 26.684C33.3137 31.1868 32.5923 34.6273 30.8443 35.6392C29.1482 36.6211 26.0445 35.5815 22.7351 32.7336C19.9388 30.3274 16.9472 26.6095 14.4405 22.2796V22.2797Z" stroke="#A77FFB" stroke-width="1.66272"/>
</g>
</g>
<path id="Vector_5" fill-rule="evenodd" clip-rule="evenodd" d="M61.9288 27.8937L57.4057 21.0601C59.6917 20.8584 61.7515 19.202 61.7515 16.1759C61.7515 13.0968 59.5664 11.1261 56.501 11.1261H49.7694V27.881H51.8547V21.2236H55.1961L59.4666 27.881L61.9288 27.8937ZM56.2515 19.4027H51.8558V12.997H56.2515C58.237 12.997 59.5929 14.303 59.5929 16.1876C59.5929 18.0723 58.236 19.4048 56.2515 19.4048V19.4027ZM69.6915 28.1942C71.677 28.1942 73.309 27.5412 74.5151 26.3361L73.6105 25.1044C72.6549 26.0844 71.2491 26.6366 69.8677 26.6366C67.2558 26.6366 65.6472 24.7275 65.4964 22.4425H75.3178V21.9647C75.3178 18.3228 73.1571 15.4582 69.4887 15.4582C66.022 15.4582 63.5109 18.2974 63.5109 21.814C63.5109 25.6077 66.0984 28.1846 69.6904 28.1846L69.6915 28.1942ZM73.4608 21.059H65.4975C65.5983 19.2009 66.8778 17.0137 69.4664 17.0137C72.2302 17.0137 73.4353 19.2498 73.4608 21.059ZM87.8309 27.8926V19.5524C87.8309 16.6134 85.6967 15.4571 83.1336 15.4571C81.1481 15.4571 79.5915 16.1101 78.2855 17.4671L79.1646 18.773C80.2445 17.6178 81.4262 17.0901 82.883 17.0901C84.6413 17.0901 85.9483 18.0192 85.9483 19.6522V21.8373C84.9683 20.7065 83.587 20.1788 81.9285 20.1788C79.8686 20.1788 77.6814 21.4604 77.6814 24.1732C77.6814 26.8107 79.8665 28.1931 81.9285 28.1931C83.5615 28.1931 84.9439 27.6155 85.9483 26.5102V27.8905L87.8309 27.8926ZM82.6069 26.8372C80.8486 26.8372 79.617 25.733 79.617 24.1998C79.617 22.6422 80.8486 21.5368 82.6069 21.5368C83.9384 21.5368 85.2189 22.0391 85.9483 23.0446V25.3306C85.22 26.335 83.9384 26.8372 82.6069 26.8372ZM96.9409 28.1942C99.1515 28.1942 100.458 27.2895 101.388 26.0844L100.132 24.9292C99.3278 26.009 98.2979 26.5113 97.0524 26.5113C94.4648 26.5113 92.8584 24.5013 92.8584 21.814C92.8584 19.1266 94.4659 17.1422 97.0524 17.1422C98.3085 17.1422 99.3384 17.62 100.132 18.7242L101.388 17.569C100.459 16.3628 99.1515 15.4592 96.9409 15.4592C93.3234 15.4592 90.8867 18.223 90.8867 21.815C90.8867 25.4325 93.3234 28.1857 96.9409 28.1857V28.1942ZM107.091 28.1942C108.196 28.1942 108.875 27.8672 109.353 27.4159L108.801 26.009C108.549 26.2851 108.058 26.5113 107.519 26.5113C106.691 26.5113 106.288 25.8583 106.288 24.9536V17.4172H108.751V15.7597H106.288V12.4438H104.403V15.7597H102.393V17.4182H104.403V25.3571C104.403 27.1664 105.308 28.1963 107.091 28.1963V28.1942Z" fill="#A77FFB"/>
</g>
</svg>
